<?xml version="1.0" encoding="utf-8"?>
<!-- Generator: Adobe Illustrator 25.4.1, SVG Export Plug-In . SVG Version: 6.00 Build 0)  -->
<svg version="1.1" id="Layer_1" xmlns="http://www.w3.org/2000/svg" xmlns:xlink="http://www.w3.org/1999/xlink" x="0px" y="0px"
	 viewBox="0 0 16 16" style="enable-background:new 0 0 16 16;" xml:space="preserve">
<style type="text/css">
	.st0{fill:#1B3E76;}
</style>
<g>
	<path class="st0" d="M1.91,12.27c-0.09,0.12-0.17,0.23-0.24,0.34c-0.01,0.02-0.01,0.06,0,0.08c0.03,0.04,0.07,0.08,0.11,0.12
		c-0.11,0.11-0.22,0.21-0.33,0.32c-0.08,0.08-0.09,0.16-0.03,0.25c0.06,0.09,0.12,0.18,0.18,0.27c0.05,0.08,0.11,0.13,0.2,0.16
		c0.09,0.03,0.18,0.07,0.27,0.12C2.19,14,2.22,14.08,2.17,14.2c-0.05,0.11-0.13,0.22-0.2,0.33c-0.01,0.01-0.03,0.02-0.04,0.02
		c-0.12,0.01-0.24,0.03-0.36,0.03c-0.19,0.01-0.34-0.08-0.48-0.2c-0.05-0.04-0.1-0.08-0.15-0.11c-0.12-0.07-0.22-0.15-0.27-0.29
		c-0.02-0.07-0.08-0.09-0.15-0.1c-0.05,0-0.09-0.03-0.13-0.05c-0.05-0.03-0.1-0.07-0.15-0.1c-0.03-0.02-0.06-0.04-0.09-0.07
		c-0.19-0.2-0.2-0.31,0-0.49c0.14-0.13,0.31-0.24,0.46-0.36c0.03-0.03,0.07-0.06,0.09-0.1c0.06-0.11,0.12-0.23,0.17-0.35
		c0.03-0.06,0.06-0.1,0.13-0.08c0.11,0.03,0.17-0.02,0.21-0.12c0.04-0.1,0.1-0.2,0.15-0.3c-0.04-0.03-0.08-0.06-0.12-0.09
		c-0.09-0.09-0.07-0.24,0.06-0.26c0.18-0.03,0.25-0.14,0.29-0.29c0.11-0.43,0.24-0.85,0.33-1.29c0.1-0.42,0.16-0.85,0.24-1.28
		c0.01-0.03-0.01-0.08-0.03-0.09C1.97,8.46,1.91,8.28,1.89,8.1C1.88,8,1.87,7.91,1.86,7.8c-0.05,0.01-0.1,0.02-0.15,0.04
		C1.53,7.88,1.38,7.82,1.29,7.65C1.2,7.48,1.17,7.3,1.16,7.11c-0.02-0.25-0.02-0.5-0.04-0.74C1.1,6.12,1.05,5.88,1.02,5.63
		c-0.05-0.37-0.1-0.73-0.04-1.1c0.03-0.22,0.11-0.31,0.32-0.38C1.32,4.14,1.35,4.1,1.35,4.08c0-0.12,0.05-0.23,0.12-0.32
		c0.25-0.33,0.58-0.51,0.97-0.6C2.66,3.1,2.87,3.1,3.08,3.15c0.02,0,0.04,0,0.05,0c-0.01-0.1-0.02-0.2-0.03-0.31
		c0.03,0,0.05,0,0.07,0c0.14,0.03,0.14,0.03,0.21-0.09C3.42,2.7,3.45,2.65,3.49,2.59C3.52,2.6,3.54,2.61,3.57,2.62
		C3.58,2.49,3.59,2.36,3.6,2.24c0.04-0.3,0.15-0.55,0.43-0.7C4.05,1.53,4.07,1.52,4.08,1.5C4.16,1.41,4.25,1.4,4.36,1.45
		C4.42,1.48,4.5,1.47,4.57,1.48C4.93,1.51,5.1,1.69,5.11,2.04c0,0.01,0,0.03,0,0.04c0.11,0.05,0.25,0.03,0.34,0.15
		C5.38,2.26,5.31,2.29,5.24,2.31c-0.06,0.02-0.1,0.04-0.09,0.12c0,0.03-0.01,0.07-0.04,0.09c-0.07,0.05-0.04,0.1-0.02,0.15
		c0.04,0.08,0.07,0.15,0.1,0.23C5.17,2.91,5.17,2.92,5.16,2.92C5.12,2.93,5.05,2.95,5.05,2.96c0,0.1-0.06,0.2,0.01,0.29
		C5.1,3.31,5.14,3.37,5.2,3.44C5.13,3.45,5.07,3.46,5.01,3.47C4.95,3.48,4.9,3.5,4.88,3.57c-0.03,0.1-0.07,0.21-0.07,0.31
		c-0.01,0.23,0,0.47,0,0.72C5,4.52,5.19,4.43,5.38,4.35C5.4,4.34,5.42,4.32,5.42,4.3c0.02-0.13,0.11-0.2,0.23-0.22
		c0.07-0.01,0.1-0.04,0.11-0.11C5.78,3.85,5.8,3.74,5.82,3.62c0-0.01,0-0.03,0-0.04c0.1-0.13,0.03-0.26,0.01-0.38
		C5.76,2.83,5.68,2.47,5.6,2.1C5.59,2.04,5.59,1.98,5.65,1.95c0.06-0.03,0.12,0,0.14,0.09c0.04,0.19,0.08,0.38,0.12,0.58
		c0.06,0.26,0.11,0.53,0.17,0.79c0,0.02,0.04,0.05,0.07,0.05c0.23,0,0.38,0.14,0.52,0.29c0.03,0.03,0.03,0.09,0.03,0.14
		c-0.01,0.21-0.11,0.36-0.3,0.46c-0.09,0.05-0.1,0.11-0.08,0.2c0.06,0.27,0.11,0.54,0.17,0.81C6.42,5.37,6.36,5.39,6.3,5.4
		c-0.05-0.24-0.1-0.49-0.15-0.73C6.02,4.68,5.93,4.71,5.87,4.83c-0.16,0.28-0.39,0.49-0.63,0.7C5.11,5.64,4.99,5.76,4.82,5.82
		c-0.02,0-0.04,0.03-0.03,0.04c0,0.08-0.05,0.1-0.1,0.13C4.26,6.22,3.86,6.48,3.56,6.85c-0.19,0.24-0.34,0.5-0.37,0.81
		C3.15,8.05,3.28,8.38,3.56,8.65c0.03,0.03,0.1,0.07,0.1,0.1c0,0.07-0.02,0.15-0.06,0.2C3.45,9.12,3.3,9.31,3.12,9.45
		c-0.33,0.27-0.6,0.58-0.72,0.99c-0.11,0.35-0.09,0.68,0.11,1c0.02,0.02,0.02,0.07,0.01,0.1C2.47,11.69,2.43,11.84,2.38,12
		c-0.02,0.06-0.03,0.11,0.01,0.17c0.05,0.08,0.02,0.15-0.04,0.21c-0.07,0.06-0.14,0.07-0.22,0.03C2.06,12.36,1.99,12.32,1.91,12.27z
		 M1.88,7.63C1.82,7.62,1.75,7.61,1.69,7.6c-0.16-0.03-0.23-0.11-0.2-0.27c0.02-0.15,0.05-0.29,0.07-0.44
		c0.03-0.24-0.11-0.48-0.32-0.56c0,0.29-0.01,0.58,0,0.87c0.01,0.13,0.05,0.26,0.1,0.39c0.08,0.19,0.24,0.26,0.44,0.21
		C1.89,7.76,1.89,7.75,1.88,7.63z"/>
	<path class="st0" d="M7.07,10.23c0.07-0.21,0.12-0.42,0.2-0.61c0.37-0.93,0.87-1.79,1.45-2.6c0.27-0.38,0.55-0.75,0.87-1.07
		c0.07-0.07,0.16-0.14,0.24-0.2c0.11-0.08,0.24-0.09,0.36-0.03c0.13,0.06,0.15,0.2,0.16,0.33c0,0.02-0.01,0.05-0.03,0.07
		C10.11,6.3,9.96,6.55,9.81,6.79C9.57,7.19,9.35,7.6,9.11,8C9.11,8.01,9.1,8.02,9.09,8.06C9.22,8.04,9.33,8.02,9.44,8
		c0.36-0.07,0.71-0.16,1.05-0.32c0.4-0.19,0.7-0.51,0.94-0.87c0.16-0.25,0.3-0.51,0.44-0.77c0.08-0.15,0.23-0.18,0.35-0.07
		c0.28,0.27,0.32,0.59,0.2,0.94c-0.16,0.47-0.48,0.81-0.88,1.09C11.08,8.31,10.56,8.5,10,8.52c-0.2,0.01-0.41,0-0.63,0
		C9.4,8.65,9.43,8.8,9.48,8.93c0.32,0.81,0.9,1.26,1.77,1.36c0.07,0.01,0.13,0.01,0.2,0.02c0.08,0.01,0.12,0.05,0.13,0.12
		c0.01,0.09-0.03,0.16-0.1,0.18c-0.08,0.02-0.17,0.04-0.25,0.06c-0.08,0.02-0.14,0.07-0.17,0.15c-0.01,0.03-0.05,0.06-0.08,0.07
		c-0.3,0.07-0.6,0.14-0.9,0.2c-0.05,0.01-0.13-0.01-0.17-0.04c-0.28-0.2-0.47-0.47-0.6-0.77C9.1,9.83,8.98,9.37,8.98,8.89
		c0-0.15,0-0.31,0-0.48c-0.03-0.02-0.06-0.03-0.1,0.04c-0.3,0.62-0.58,1.25-0.74,1.93c-0.05,0.22-0.07,0.45-0.1,0.67
		c-0.01,0.07-0.03,0.11-0.11,0.12c-0.26,0.03-0.48-0.04-0.66-0.24c-0.02-0.03-0.03-0.08-0.03-0.12c0.02-0.08,0.05-0.16,0.07-0.24
		C7.4,10.35,7.33,10.25,7.07,10.23z"/>
	<path class="st0" d="M6.03,6.75C5.61,6.9,5.18,7.03,4.82,7.3C4.68,7.4,4.56,7.53,4.52,7.71c-0.01,0.07,0,0.12,0.06,0.14
		C4.66,7.88,4.73,7.9,4.81,7.91c0.38,0.04,0.75,0.08,1.13,0.12C6.2,8.07,6.42,8.18,6.62,8.35c0.32,0.27,0.33,0.61,0.22,0.99
		c-0.16,0.52-0.46,0.94-0.89,1.26c-0.08,0.06-0.17,0.13-0.26,0.19c-0.01-0.04-0.02-0.07-0.03-0.1c-0.08-0.21-0.32-0.4-0.6-0.28
		c-0.36,0.14-0.72,0.27-1.08,0.39c-0.1,0.03-0.2,0.04-0.31,0.05c-0.11,0.01-0.2-0.03-0.27-0.11c-0.08-0.08-0.16-0.1-0.25-0.05
		c-0.08,0.04-0.12,0.14-0.09,0.25c0.05,0.22,0.14,0.42,0.31,0.59c-0.12,0-0.34-0.11-0.44-0.23c-0.2-0.22-0.21-0.48-0.12-0.74
		c0.16-0.47,0.49-0.78,0.94-0.97c0.09-0.04,0.15,0.04,0.2,0.1c0.03,0.04,0.05,0.09,0.07,0.12c-0.1,0.1-0.2,0.18-0.29,0.28
		c-0.11,0.12-0.17,0.27-0.2,0.43c-0.01,0.08,0.02,0.13,0.09,0.12c0.13,0,0.26,0,0.38-0.03c0.53-0.15,1.03-0.38,1.48-0.7
		C5.69,9.72,5.86,9.47,5.9,9.16C5.93,8.97,5.9,8.92,5.71,8.88C5.53,8.84,5.35,8.82,5.16,8.79C4.79,8.72,4.4,8.68,4.05,8.5
		c-0.33-0.17-0.5-0.46-0.47-0.8c0.02-0.22,0.13-0.41,0.27-0.58c0.26-0.33,0.61-0.55,0.97-0.75c0.5-0.27,1.03-0.46,1.58-0.58
		c0.45-0.1,0.7,0.11,0.88,0.52C7.3,6.34,7.28,6.38,7.26,6.42C7.11,6.74,6.84,6.94,6.52,7.08c-0.07,0.03-0.14,0.04-0.2,0.07
		C6.2,7.2,6.1,7.2,6.01,7.09C5.92,6.99,5.9,6.93,5.98,6.82C5.99,6.8,6.01,6.78,6.03,6.75z"/>
	<path class="st0" d="M12.99,11.58c0.17,0.11,0.35,0.08,0.53,0.04c0.09-0.02,0.18-0.04,0.26-0.04c0.12,0,0.15,0.07,0.08,0.17
		c-0.22,0.33-0.4,0.68-0.48,1.07c-0.02,0.09-0.02,0.19-0.02,0.29c0,0.06,0.05,0.08,0.08,0.04c0.08-0.09,0.17-0.17,0.22-0.28
		c0.04-0.08,0-0.18,0.02-0.27c0.08-0.43,0.27-0.79,0.68-0.99c0.09-0.04,0.21-0.05,0.32-0.05c0.12,0,0.18,0.09,0.19,0.21
		c0.03,0.32-0.22,0.68-0.54,0.78c-0.05,0.02-0.1,0.03-0.16,0.04c-0.06,0-0.09,0.04-0.09,0.09c0,0.1,0.01,0.2,0.03,0.29
		c0.03,0.13,0.13,0.18,0.26,0.17c0.22-0.03,0.37-0.15,0.47-0.34c0.05-0.1,0.11-0.19,0.23-0.26c-0.07,0.13-0.08,0.24-0.03,0.35
		c0.02,0.04,0.05,0.09,0.09,0.12c0.03,0.02,0.1,0.04,0.13,0.03c0.03-0.02,0.05-0.08,0.04-0.12c-0.02-0.11-0.05-0.21-0.09-0.32
		c-0.07-0.18-0.15-0.35-0.21-0.53c-0.09-0.27,0.05-0.53,0.32-0.61c0.29-0.09,0.56,0.04,0.64,0.31c0.08,0.25-0.08,0.52-0.36,0.58
		c0.07-0.18,0.07-0.36,0.01-0.54c-0.01-0.02-0.01-0.03-0.02-0.05c-0.04-0.09-0.12-0.14-0.18-0.12c-0.08,0.04-0.08,0.12-0.06,0.19
		c0.05,0.19,0.11,0.37,0.17,0.55c0.06,0.17,0.14,0.34,0.12,0.53c-0.03,0.27-0.22,0.43-0.47,0.41c-0.15-0.02-0.28-0.09-0.36-0.24
		c-0.16,0.15-0.33,0.28-0.55,0.3c-0.24,0.02-0.42-0.08-0.54-0.29c-0.02,0.03-0.04,0.05-0.06,0.07c-0.08,0.06-0.15,0.14-0.24,0.18
		c-0.22,0.1-0.42-0.04-0.43-0.3c-0.01-0.25,0.05-0.48,0.14-0.71c0.05-0.13,0.11-0.26,0.17-0.4c-0.08,0-0.13,0.02-0.16,0.1
		c-0.11,0.32-0.23,0.63-0.36,0.94c-0.06,0.15-0.17,0.27-0.3,0.36c-0.21,0.15-0.49,0.07-0.52-0.22c-0.06,0.06-0.12,0.13-0.18,0.18
		c-0.08,0.07-0.18,0.12-0.3,0.12c-0.12,0-0.2-0.06-0.19-0.19c0.02-0.18,0.05-0.36,0.1-0.53c0.07-0.25,0.14-0.5,0.13-0.76
		c0-0.01,0-0.03,0-0.04c0-0.05-0.01-0.13,0.02-0.15c0.09-0.07,0.2-0.11,0.32-0.06c0.07,0.03,0.09,0.1,0.09,0.17
		c0.01,0.28-0.06,0.54-0.13,0.81c-0.02,0.08-0.05,0.16-0.05,0.24c0.41-0.31,0.5-0.76,0.58-1.22c0.18-0.02,0.33,0.09,0.31,0.28
		c-0.01,0.15-0.05,0.29-0.1,0.43c-0.05,0.17-0.11,0.33-0.17,0.49c-0.01,0.03-0.02,0.07-0.02,0.1c0,0.04,0.01,0.1,0.03,0.1
		c0.04,0.01,0.09,0,0.12-0.01c0.04-0.02,0.07-0.06,0.08-0.1c0.17-0.35,0.32-0.7,0.35-1.09C13,11.79,12.99,11.69,12.99,11.58z
		 M14.18,12.38c0.22,0.02,0.49-0.31,0.49-0.52c0-0.07-0.04-0.09-0.12-0.04C14.34,11.94,14.26,12.16,14.18,12.38z"/>
	<path class="st0" d="M9.94,12.13c0.09-0.1,0.15-0.19,0.24-0.27c0.08-0.06,0.17-0.12,0.27-0.15c0.13-0.04,0.22,0.03,0.23,0.17
		c0.02,0.22-0.07,0.42-0.13,0.62c-0.06,0.2-0.12,0.41-0.17,0.62c-0.01,0.03,0.01,0.06,0.01,0.09c0.03-0.01,0.07-0.01,0.1-0.03
		c0.12-0.09,0.21-0.19,0.24-0.35c0.09-0.41,0.21-0.82,0.32-1.24c0.01-0.04,0.04-0.08,0.07-0.11c0.07-0.07,0.14-0.14,0.2-0.22
		c-0.06,0.04-0.11,0.09-0.17,0.12c-0.06,0.03-0.12,0.06-0.19,0.07c-0.17,0.02-0.33,0.04-0.5,0.05c-0.2,0.01-0.4,0-0.59-0.07
		c-0.08-0.03-0.15-0.09-0.18-0.18c0.24,0.09,0.47,0.02,0.7-0.03c0.24-0.05,0.49-0.12,0.73-0.17c0.06-0.01,0.09-0.04,0.1-0.1
		c0.01-0.07,0.05-0.11,0.13-0.12c0.09-0.01,0.17-0.04,0.26-0.06c0.03-0.01,0.06-0.01,0.09-0.01c-0.01,0.06-0.02,0.11-0.04,0.16
		c0.18-0.03,0.34-0.06,0.51-0.07c0.14-0.01,0.29-0.01,0.43,0.02c0.21,0.04,0.29,0.21,0.21,0.42c-0.17-0.09-0.36-0.06-0.54-0.03
		c-0.22,0.03-0.44,0.07-0.66,0.1c-0.06,0.01-0.09,0.03-0.11,0.09c-0.14,0.51-0.28,1.03-0.41,1.54c-0.04,0.14-0.05,0.29-0.06,0.44
		c-0.01,0.07,0.02,0.15,0.03,0.23c-0.2,0.06-0.3-0.04-0.38-0.37c-0.05,0.04-0.09,0.08-0.14,0.11c-0.12,0.09-0.25,0.14-0.39,0.07
		c-0.15-0.07-0.2-0.2-0.19-0.35c0.01-0.26,0.09-0.51,0.17-0.76c0.01-0.03,0.02-0.07,0.02-0.12c-0.23,0.1-0.49,0.77-0.52,1.26
		c-0.14,0.04-0.25-0.03-0.35-0.2C9.18,13.38,9.09,13.45,9,13.5c-0.22,0.12-0.44,0.14-0.66-0.01c-0.18-0.14-0.24-0.34-0.23-0.55
		c0.02-0.38,0.17-0.7,0.45-0.95c0.14-0.13,0.3-0.22,0.5-0.22c0.19,0,0.29,0.11,0.27,0.29c-0.04,0.33-0.22,0.57-0.54,0.7
		c-0.05,0.02-0.11,0.03-0.17,0.04c-0.06,0.01-0.09,0.04-0.08,0.09c0.01,0.09,0.01,0.19,0.03,0.28c0.04,0.14,0.16,0.21,0.31,0.18
		c0.22-0.06,0.38-0.18,0.44-0.41c0.06-0.21,0.13-0.41,0.17-0.62c0.02-0.08,0-0.18-0.02-0.26c-0.01-0.05-0.01-0.08,0.03-0.11
		c0.07-0.05,0.13-0.11,0.2-0.14c0.13-0.07,0.22-0.01,0.24,0.13C9.95,12,9.94,12.06,9.94,12.13z M8.6,12.56
		c0.01,0.01,0.02,0.02,0.03,0.03c0.09,0,0.16-0.04,0.23-0.1c0.13-0.11,0.23-0.24,0.24-0.41C9.11,12,9.07,11.97,9,12.01
		c-0.06,0.03-0.11,0.07-0.15,0.12C8.76,12.27,8.68,12.42,8.6,12.56z"/>
	<path class="st0" d="M3.23,10.86c0.22,0.21,0.45,0.21,0.69,0.15c0.2-0.05,0.39-0.12,0.58-0.19c0.21-0.07,0.41-0.15,0.61-0.22
		c0.16-0.06,0.28,0,0.34,0.16c0.06,0.17,0.07,0.35,0.03,0.52c-0.1,0.5-0.21,1-0.31,1.5c-0.04,0.18-0.05,0.36-0.07,0.54
		c-0.01,0.13,0,0.26,0.09,0.37c-0.13-0.01-0.21-0.08-0.28-0.18c-0.12-0.19-0.15-0.41-0.14-0.63c0-0.09,0.01-0.19,0.02-0.28
		c-0.18,0-0.34,0-0.51,0c-0.02,0-0.06,0.04-0.07,0.07C4.1,12.88,4,13.1,3.87,13.29c-0.1,0.15-0.24,0.28-0.38,0.4
		c-0.19,0.15-0.43,0.19-0.67,0.14C2.6,13.8,2.43,13.6,2.39,13.34c-0.04-0.31,0.04-0.58,0.25-0.81c0.22-0.23,0.49-0.25,0.78-0.16
		c0.09,0.03,0.17,0.07,0.25,0.12c-0.28-0.03-0.47,0.11-0.63,0.31c-0.12,0.15-0.2,0.33-0.22,0.52c-0.01,0.12-0.01,0.24,0.1,0.31
		c0.09,0.06,0.22,0.03,0.33-0.07c0.17-0.15,0.28-0.34,0.37-0.54c0.17-0.37,0.34-0.74,0.49-1.12c0.13-0.33,0.31-0.61,0.62-0.81
		c0.06-0.04,0.12-0.09,0.16-0.16c-0.11,0.07-0.21,0.14-0.32,0.21c-0.1,0.07-0.2,0.15-0.31,0.21c-0.11,0.06-0.23,0.12-0.36,0.13
		c-0.32,0.03-0.54-0.15-0.64-0.5C3.25,10.96,3.24,10.93,3.23,10.86z M4.36,12.39c0.15,0,0.28,0,0.42,0c0.07,0,0.09-0.02,0.11-0.09
		c0.07-0.32,0.15-0.64,0.22-0.96c0.03-0.12,0.05-0.23,0-0.36C4.77,11.4,4.57,11.89,4.36,12.39z"/>
	<path class="st0" d="M7.15,10.45C7.07,10.7,7,10.93,6.93,11.17c-0.13,0.51-0.25,1.02-0.37,1.52c-0.04,0.16-0.09,0.32-0.12,0.49
		c-0.01,0.05,0.01,0.11,0.01,0.17c0.05-0.03,0.1-0.05,0.15-0.08c0.08-0.07,0.14-0.15,0.16-0.26c0.05-0.25,0.12-0.5,0.17-0.75
		c0.01-0.04,0.01-0.11-0.02-0.14c-0.05-0.06-0.02-0.1,0.02-0.13c0.06-0.05,0.12-0.09,0.18-0.13c0.14-0.07,0.24-0.01,0.25,0.15
		c0.01,0.2-0.05,0.38-0.1,0.57c-0.05,0.17-0.1,0.33-0.14,0.5c0,0.01-0.01,0.02-0.01,0.03c0.01,0.05,0.02,0.09,0.03,0.14
		c0.04-0.02,0.1-0.02,0.12-0.05c0.1-0.11,0.2-0.23,0.28-0.35c0.18-0.28,0.32-0.57,0.39-0.9c0.01-0.06,0.01-0.12,0.09-0.14
		c0.1-0.02,0.2-0.05,0.3,0.01c0.02,0.01,0.02,0.06,0.02,0.08c-0.17,0.47-0.37,0.92-0.69,1.31c-0.13,0.16-0.28,0.3-0.47,0.37
		c-0.24,0.09-0.34,0.05-0.46-0.16c-0.06,0.05-0.12,0.1-0.18,0.14c-0.22,0.14-0.4,0.08-0.47-0.17c0-0.01-0.01-0.02-0.02-0.04
		c-0.09,0.13-0.2,0.22-0.35,0.26c-0.2,0.05-0.34-0.02-0.39-0.22c-0.05-0.21-0.02-0.42,0.03-0.63c0.07-0.25,0.17-0.49,0.36-0.68
		c0.16-0.16,0.34-0.25,0.57-0.21c0.02,0,0.04,0,0.06,0c0.04-0.18,0.09-0.35,0.12-0.53c0.02-0.13,0.07-0.24,0.18-0.32
		c0.04-0.03,0.07-0.06,0.11-0.09c-0.01-0.01-0.02-0.02-0.02-0.02c-0.07,0.06-0.14,0.12-0.22,0.18c-0.11,0.08-0.23,0.09-0.35,0.03
		c-0.12-0.06-0.17-0.16-0.19-0.3c0.23,0.15,0.44,0.08,0.64-0.03c0.16-0.08,0.3-0.2,0.46-0.3C7.09,10.49,7.11,10.47,7.15,10.45z
		 M6.28,12.13c-0.11,0.01-0.18,0.07-0.24,0.14c-0.16,0.18-0.27,0.4-0.33,0.64c-0.03,0.13-0.05,0.26-0.06,0.39
		c-0.01,0.12,0.07,0.16,0.16,0.08c0.07-0.06,0.13-0.14,0.18-0.23C6.17,12.84,6.2,12.48,6.28,12.13z"/>
	<path class="st0" d="M6.72,7.43C6.78,7.41,6.83,7.38,6.9,7.34c0.07,0.31,0.13,0.61,0.19,0.88C7.02,8.17,6.94,8.1,6.86,8.03
		C6.84,8.01,6.84,7.98,6.83,7.96C6.8,7.79,6.76,7.62,6.72,7.43z"/>
</g>
</svg>
